<svg width="88" height="96" viewBox="0 0 88 96" fill="none" xmlns="http://www.w3.org/2000/svg">
<path d="M44.0393 15.2371C47.6755 15.2371 50.6337 12.2782 50.6337 8.64103C50.6337 5.00382 47.6755 2.04492 44.0393 2.04492C40.4031 2.04492 37.4449 5.00382 37.4449 8.64103C37.4449 12.2782 40.4031 15.2371 44.0393 15.2371ZM44.0393 4.38121C46.3873 4.38121 48.2974 6.29209 48.2974 8.64103C48.2974 10.99 46.3871 12.9009 44.0393 12.9009C41.6915 12.9009 39.7812 10.99 39.7812 8.64103C39.7812 6.29209 41.6915 4.38121 44.0393 4.38121Z" fill="url(#paint0_linear_841_324)"/>
<path d="M35.8007 88.3879C35.8007 92.0251 38.7588 94.984 42.395 94.984C46.0312 94.984 48.9894 92.0251 48.9894 88.3879C48.9894 84.7507 46.0312 81.7917 42.395 81.7917C38.7588 81.7917 35.8007 84.7508 35.8007 88.3879ZM46.6531 88.3879C46.6531 90.7366 44.7428 92.6477 42.395 92.6477C40.0472 92.6477 38.1369 90.7368 38.1369 88.3879C38.1369 86.0389 40.0472 84.128 42.395 84.128C44.7428 84.128 46.6531 86.0389 46.6531 88.3879Z" fill="url(#paint1_linear_841_324)"/>
<path d="M13.1289 47.4697C9.50825 48.1178 6.75085 51.2887 6.75085 55.0937C6.75085 59.3656 10.2255 62.8412 14.4962 62.8412C15.2117 62.8412 15.904 62.7416 16.5623 62.5591C18.9971 67.2052 22.5994 71.1387 27.0315 73.9785C31.8834 77.0871 37.5143 78.7301 43.3154 78.7301C59.9716 78.7301 73.522 65.1754 73.522 48.5144C73.522 31.8534 59.9716 18.2988 43.3154 18.2988C27.0092 18.2988 13.6814 31.2907 13.1289 47.4697ZM14.4962 60.505C11.5138 60.505 9.08714 58.0776 9.08714 55.0937C9.08714 52.1099 11.5138 49.6825 14.4962 49.6825C17.4787 49.6825 19.9053 52.1099 19.9053 55.0937C19.9053 58.0776 17.4787 60.505 14.4962 60.505ZM51.1101 73.1328C42.6872 73.1328 35.8349 66.2781 35.8349 57.8525C35.8349 54.2174 37.0558 50.7151 39.2727 47.9908C41.2494 45.5619 43.9511 43.8377 46.9645 43.0556C47.6175 44.7076 49.229 45.8796 51.1101 45.8796C52.9639 45.8796 54.5567 44.7411 55.2274 43.1265C58.2266 43.9364 60.9256 45.6661 62.9112 48.0771C65.1513 50.7969 66.3851 54.2684 66.3851 57.8525C66.3851 66.2781 59.5327 73.1328 51.1101 73.1328ZM48.9893 41.4218C48.9893 40.2519 49.9407 39.3003 51.1101 39.3003C52.2794 39.3003 53.2306 40.2519 53.2306 41.4218C53.2306 42.5917 52.2794 43.5433 51.1101 43.5433C49.9407 43.5433 48.9893 42.5917 48.9893 41.4218ZM71.1859 48.5146C71.1859 52.7467 70.2366 56.7609 68.5424 60.3574C68.6594 59.5389 68.7212 58.7029 68.7212 57.8527C68.7212 53.728 67.2982 49.7288 64.7144 46.592C62.3507 43.7219 59.1128 41.687 55.521 40.7891C55.2128 38.6298 53.3525 36.964 51.1099 36.964C48.8941 36.964 47.0515 38.5896 46.7103 40.7112C43.0832 41.5748 39.8244 43.6113 37.4605 46.5163C34.9056 49.6558 33.4984 53.682 33.4984 57.8527C33.4984 67.3575 41.0629 75.127 50.4857 75.457C48.1969 76.0671 45.7937 76.394 43.3152 76.394C37.9618 76.394 32.7667 74.8785 28.2918 72.0115C24.241 69.4163 20.9434 65.8301 18.698 61.597C20.8281 60.2151 22.2414 57.8173 22.2414 55.0939C22.2414 51.1516 19.2817 47.8902 15.4687 47.4097C16.051 32.5474 28.3175 20.6353 43.3152 20.6353C58.6831 20.6353 71.1856 33.142 71.1856 48.5148L71.1859 48.5146Z" fill="url(#paint2_linear_841_324)"/>
<path d="M54.0306 81.9418C54.0306 82.5868 54.5538 83.11 55.1988 83.11H86.8319C87.4769 83.11 88 82.5868 88 81.9418C88 81.2968 87.4769 80.7737 86.8319 80.7737H55.1988C54.5538 80.7737 54.0306 81.2968 54.0306 81.9418Z" fill="url(#paint3_linear_841_324)"/>
<path d="M84.3486 88.2807C84.3486 87.6355 83.8255 87.1125 83.1805 87.1125H63.3162C62.6712 87.1125 62.1481 87.6355 62.1481 88.2807C62.1481 88.9259 62.6712 89.4488 63.3162 89.4488H83.1805C83.8255 89.4488 84.3486 88.9259 84.3486 88.2807Z" fill="url(#paint4_linear_841_324)"/>
<path d="M67.6132 93.4512C66.9682 93.4512 66.4451 93.9743 66.4451 94.6193C66.4451 95.2643 66.9682 95.7875 67.6132 95.7875H78.5334C79.1784 95.7875 79.7015 95.2643 79.7015 94.6193C79.7015 93.9743 79.1784 93.4512 78.5334 93.4512H67.6132Z" fill="url(#paint5_linear_841_324)"/>
<path d="M1.16814 15.014H32.8012C33.4462 15.014 33.9694 14.4909 33.9694 13.8459C33.9694 13.2009 33.4462 12.6777 32.8012 12.6777H1.16814C0.523133 12.6777 0 13.2009 0 13.8459C0 14.4909 0.523133 15.014 1.16814 15.014Z" fill="url(#paint6_linear_841_324)"/>
<path d="M4.81951 8.67515H24.6838C25.3288 8.67515 25.8519 8.15221 25.8519 7.50701C25.8519 6.86181 25.3288 6.33887 24.6838 6.33887H4.81951C4.1745 6.33887 3.65137 6.86181 3.65137 7.50701C3.65137 8.15221 4.1745 8.67515 4.81951 8.67515Z" fill="url(#paint7_linear_841_324)"/>
<path d="M9.4666 2.33628H20.3868C21.0318 2.33628 21.5549 1.81315 21.5549 1.16814C21.5549 0.523133 21.0318 0 20.3868 0H9.4666C8.82159 0 8.29846 0.523133 8.29846 1.16814C8.29846 1.81315 8.82159 2.33628 9.4666 2.33628Z" fill="url(#paint8_linear_841_324)"/>
<defs>
<linearGradient id="paint0_linear_841_324" x1="35.7262" y1="5.23772" x2="53.6297" y2="1.45282" gradientUnits="userSpaceOnUse">
<stop offset="0.15" stop-color="#317EBB"/>
<stop offset="0.79" stop-color="#FD5951"/>
</linearGradient>
<linearGradient id="paint1_linear_841_324" x1="34.0819" y1="84.9845" x2="51.9854" y2="81.1996" gradientUnits="userSpaceOnUse">
<stop offset="0.15" stop-color="#317EBB"/>
<stop offset="0.79" stop-color="#FD5951"/>
</linearGradient>
<linearGradient id="paint2_linear_841_324" x1="-1.95071" y1="32.9245" x2="87.8397" y2="11.9453" gradientUnits="userSpaceOnUse">
<stop offset="0.15" stop-color="#317EBB"/>
<stop offset="0.79" stop-color="#FD5951"/>
</linearGradient>
<linearGradient id="paint3_linear_841_324" x1="49.6038" y1="81.3391" x2="54.2122" y2="67.1698" gradientUnits="userSpaceOnUse">
<stop offset="0.15" stop-color="#317EBB"/>
<stop offset="0.79" stop-color="#FD5951"/>
</linearGradient>
<linearGradient id="paint4_linear_841_324" x1="59.2549" y1="87.678" x2="65.5045" y2="75.12" gradientUnits="userSpaceOnUse">
<stop offset="0.15" stop-color="#317EBB"/>
<stop offset="0.79" stop-color="#FD5951"/>
</linearGradient>
<linearGradient id="paint5_linear_841_324" x1="64.7175" y1="94.0166" x2="72.4233" y2="84.7706" gradientUnits="userSpaceOnUse">
<stop offset="0.15" stop-color="#317EBB"/>
<stop offset="0.79" stop-color="#FD5951"/>
</linearGradient>
<linearGradient id="paint6_linear_841_324" x1="-4.42686" y1="13.2432" x2="0.181601" y2="-0.926158" gradientUnits="userSpaceOnUse">
<stop offset="0.15" stop-color="#317EBB"/>
<stop offset="0.79" stop-color="#FD5951"/>
</linearGradient>
<linearGradient id="paint7_linear_841_324" x1="0.758213" y1="6.9043" x2="7.00781" y2="-5.65373" gradientUnits="userSpaceOnUse">
<stop offset="0.15" stop-color="#317EBB"/>
<stop offset="0.79" stop-color="#FD5951"/>
</linearGradient>
<linearGradient id="paint8_linear_841_324" x1="6.57089" y1="0.56543" x2="14.2767" y2="-8.68054" gradientUnits="userSpaceOnUse">
<stop offset="0.15" stop-color="#317EBB"/>
<stop offset="0.79" stop-color="#FD5951"/>
</linearGradient>
</defs>
</svg>
