<svg width="28" height="28" viewBox="0 0 28 28" fill="none" xmlns="http://www.w3.org/2000/svg">
<path d="M13.9102 0C6.22773 0 0 6.26801 0 14C0 21.732 6.22773 28 13.9102 28C21.5926 28 27.8203 21.732 27.8203 14C27.8203 6.26801 21.5926 1.74273e-07 13.9102 0ZM13.9102 1.07715C20.9913 1.07715 26.7432 6.85624 26.7432 14C26.7432 21.1438 20.9913 26.9229 13.9102 26.9229C6.82902 26.9229 1.07715 21.1438 1.07715 14C1.07715 6.85624 6.82902 1.07715 13.9102 1.07715ZM13.9893 12.9297L9.86328 8.80371L8.79297 9.87305L12.9199 14L8.7832 18.1367L9.85254 19.207L13.9893 15.0703L18.127 19.207L19.1963 18.1367L15.0596 14L19.1963 9.86328L18.127 8.79297L13.9893 12.9297Z" fill="url(#paint0_linear_57_697)"/>
<defs>
<linearGradient id="paint0_linear_57_697" x1="31.4458" y1="6.7766" x2="-6.33977" y2="-1.16233" gradientUnits="userSpaceOnUse">
<stop offset="0.15" stop-color="#317EBB"/>
<stop offset="0.79" stop-color="#FD5951"/>
</linearGradient>
</defs>
</svg>
