<svg width="117" height="117" viewBox="0 0 117 117" fill="none" xmlns="http://www.w3.org/2000/svg">
<path d="M58.5 117C57.7216 117 57.0904 116.369 57.0904 115.59V1.40964C57.0904 0.631236 57.7216 0 58.5 0C59.2787 0 59.9096 0.631236 59.9096 1.40964V115.59C59.9096 116.369 59.2787 117 58.5 117ZM67.3807 106.851C66.602 106.851 65.9711 106.22 65.9711 105.441V67.3807C65.9711 66.602 66.602 65.9711 67.3807 65.9711H105.441C106.22 65.9711 106.851 66.602 106.851 67.3807C106.851 68.1594 106.22 68.7904 105.441 68.7904H68.7904V105.441C68.7904 106.22 68.1594 106.851 67.3807 106.851ZM49.6193 106.851C48.8409 106.851 48.2096 106.22 48.2096 105.441V68.7904H11.559C10.7806 68.7904 10.1494 68.1594 10.1494 67.3807C10.1494 66.602 10.7806 65.9711 11.559 65.9711H49.6193C50.3977 65.9711 51.0289 66.602 51.0289 67.3807V105.441C51.0289 106.22 50.3977 106.851 49.6193 106.851ZM76.2614 100.507C75.4828 100.507 74.8518 99.8763 74.8518 99.0976V77.5301C74.8518 76.7514 75.4828 76.1205 76.2614 76.1205H97.8289C98.6076 76.1205 99.2386 76.7514 99.2386 77.5301C99.2386 78.3088 98.6076 78.9398 97.8289 78.9398H77.6711V99.0976C77.6711 99.8763 77.0401 100.507 76.2614 100.507ZM39.4699 99.2386C38.6915 99.2386 38.0602 98.6076 38.0602 97.8289V77.6711H17.9024C17.124 77.6711 16.4928 77.0401 16.4928 76.2614C16.4928 75.4828 17.124 74.8518 17.9024 74.8518H39.4699C40.2483 74.8518 40.8795 75.4828 40.8795 76.2614V97.8289C40.8795 98.6076 40.2483 99.2386 39.4699 99.2386ZM115.59 59.9096H67.3819C66.6032 59.9096 65.9722 59.2787 65.9722 58.5C65.9722 57.7216 66.6032 57.0904 67.3819 57.0904H115.59C116.369 57.0904 117 57.7216 117 58.5C117 59.2787 116.369 59.9096 115.59 59.9096ZM49.6181 59.9096H1.40964C0.631236 59.9096 0 59.2787 0 58.5C0 57.7216 0.631236 57.0904 1.40964 57.0904H49.6181C50.3966 57.0904 51.0278 57.7216 51.0278 58.5C51.0278 59.2787 50.3968 59.9096 49.6181 59.9096ZM105.441 51.0289H67.3807C66.602 51.0289 65.9711 50.3977 65.9711 49.6193V11.559C65.9711 10.7806 66.602 10.1494 67.3807 10.1494C68.1594 10.1494 68.7904 10.7806 68.7904 11.559V48.2096H105.441C106.22 48.2096 106.851 48.8409 106.851 49.6193C106.851 50.3977 106.22 51.0289 105.441 51.0289ZM49.6193 51.0289H11.559C10.7806 51.0289 10.1494 50.3977 10.1494 49.6193C10.1494 48.8409 10.7806 48.2096 11.559 48.2096H48.2096V11.559C48.2096 10.7806 48.8409 10.1494 49.6193 10.1494C50.3977 10.1494 51.0289 10.7806 51.0289 11.559V49.6193C51.0289 50.3977 50.3977 51.0289 49.6193 51.0289ZM99.0976 42.1482H77.5301C76.7514 42.1482 76.1205 41.517 76.1205 40.7386V19.1711C76.1205 18.3927 76.7514 17.7614 77.5301 17.7614C78.3088 17.7614 78.9398 18.3927 78.9398 19.1711V39.3289H99.0976C99.8763 39.3289 100.507 39.9602 100.507 40.7386C100.507 41.517 99.8763 42.1482 99.0976 42.1482ZM40.7386 40.8795H19.1711C18.3927 40.8795 17.7614 40.2483 17.7614 39.4699C17.7614 38.6915 18.3927 38.0602 19.1711 38.0602H39.3289V17.9024C39.3289 17.124 39.9602 16.4928 40.7386 16.4928C41.517 16.4928 42.1482 17.124 42.1482 17.9024V39.4699C42.1482 40.2483 41.517 40.8795 40.7386 40.8795Z" fill="url(#paint0_linear_841_335)"/>
<defs>
<linearGradient id="paint0_linear_841_335" x1="-15.2473" y1="28.3165" x2="143.575" y2="-5.26838" gradientUnits="userSpaceOnUse">
<stop offset="0.15" stop-color="#317EBB"/>
<stop offset="0.79" stop-color="#FD5951"/>
</linearGradient>
</defs>
</svg>
