<svg width="67" height="61" viewBox="0 0 67 61" fill="none" xmlns="http://www.w3.org/2000/svg">
<path d="M6.37805 29.1708C2.7574 29.819 0 32.9899 0 36.7949C0 41.0668 3.47464 44.5424 7.74536 44.5424C8.46085 44.5424 9.15317 44.4427 9.81142 44.2603C12.2462 48.9064 15.8486 52.8399 20.2807 55.6797C25.1326 58.7883 30.7634 60.4313 36.5646 60.4313C53.2207 60.4313 66.7712 46.8766 66.7712 30.2155C66.7712 13.5545 53.2207 0 36.5646 0C20.2583 0 6.93058 12.9919 6.37805 29.1708ZM7.74536 42.2061C4.7629 42.2061 2.33628 39.7787 2.33628 36.7949C2.33628 33.8111 4.7629 31.3837 7.74536 31.3837C10.7278 31.3837 13.1544 33.8111 13.1544 36.7949C13.1544 39.7787 10.7278 42.2061 7.74536 42.2061ZM44.3592 54.8339C35.9363 54.8339 29.084 47.9793 29.084 39.5537C29.084 35.9186 30.3049 32.4163 32.5218 29.692C34.4985 27.2631 37.2002 25.5389 40.2137 24.7568C40.8667 26.4088 42.4781 27.5808 44.3592 27.5808C46.213 27.5808 47.8058 26.4422 48.4765 24.8277C51.4757 25.6376 54.1747 27.3672 56.1604 29.7783C58.4005 32.4981 59.6342 35.9696 59.6342 39.5537C59.6342 47.9793 52.7819 54.8339 44.3592 54.8339ZM42.2384 23.123C42.2384 21.9531 43.1899 21.0014 44.3592 21.0014C45.5285 21.0014 46.4798 21.9531 46.4798 23.123C46.4798 24.2929 45.5285 25.2445 44.3592 25.2445C43.1899 25.2445 42.2384 24.2929 42.2384 23.123ZM64.4351 30.2157C64.4351 34.4479 63.4858 38.462 61.7916 42.0586C61.9086 41.2401 61.9703 40.4041 61.9703 39.5539C61.9703 35.4292 60.5473 31.43 57.9636 28.2932C55.5998 25.423 52.3619 23.3881 48.7701 22.4902C48.4619 20.3309 46.6017 18.6652 44.359 18.6652C42.1432 18.6652 40.3007 20.2908 39.9594 22.4124C36.3323 23.276 33.0736 25.3125 30.7097 28.2174C28.1547 31.357 26.7475 35.3832 26.7475 39.5539C26.7475 49.0586 34.312 56.8281 43.7348 57.1581C41.4461 57.7683 39.0428 58.0952 36.5644 58.0952C31.211 58.0952 26.0159 56.5797 21.5409 53.7127C17.4902 51.1175 14.1925 47.5313 11.9472 43.2981C14.0773 41.9162 15.4905 39.5184 15.4905 36.7951C15.4905 32.8528 12.5308 29.5914 8.71784 29.1109C9.30016 14.2486 21.5666 2.33648 36.5644 2.33648C51.9323 2.33648 64.4347 14.8432 64.4347 30.2159L64.4351 30.2157Z" fill="url(#paint0_linear_841_327)"/>
<defs>
<linearGradient id="paint0_linear_841_327" x1="-8.70156" y1="14.6257" x2="81.0888" y2="-6.35352" gradientUnits="userSpaceOnUse">
<stop offset="0.15" stop-color="#317EBB"/>
<stop offset="0.79" stop-color="#FD5951"/>
</linearGradient>
</defs>
</svg>
