<svg width="82" height="90" viewBox="0 0 82 90" fill="none" xmlns="http://www.w3.org/2000/svg">
<path d="M40.9998 90C40.8239 90 40.648 89.9571 40.4883 89.8712L0.585449 68.4091C0.408902 68.3178 0.255288 68.1771 0.148192 67.9927C0.140836 67.9801 0.133912 67.9676 0.126989 67.9548C0.126989 67.9546 0.126773 67.9543 0.126557 67.9539C0.12634 67.9535 0.126124 67.9533 0.125908 67.9528C0.0372016 67.7852 -0.00304098 67.6043 0.000204368 67.426V22.5735C-0.00325734 22.3957 0.0372016 22.2146 0.125908 22.047C0.126124 22.0465 0.12634 22.0461 0.126557 22.0457C0.126773 22.0454 0.126773 22.0452 0.126989 22.0448C0.133912 22.032 0.140836 22.0194 0.148192 22.0068C0.255288 21.8229 0.40847 21.6822 0.584801 21.5911L40.4885 0.128819C40.8079 -0.0429398 41.1919 -0.0429398 41.5117 0.128819L81.4148 21.5907C81.5913 21.682 81.7447 21.8229 81.852 22.0071C81.8592 22.0196 81.8661 22.0322 81.873 22.0448C81.8732 22.045 81.8734 22.0454 81.8734 22.0457C81.8737 22.0461 81.8739 22.0465 81.8741 22.047C81.9628 22.2146 82.0033 22.3955 81.9998 22.5735V67.4263C82.0033 67.6043 81.9628 67.7852 81.8741 67.953C81.8739 67.9535 81.8737 67.9537 81.8734 67.9541C81.8734 67.9546 81.8732 67.9548 81.873 67.955C81.8663 67.968 81.8594 67.9806 81.8518 67.9932C81.7447 68.1771 81.5915 68.3176 81.4152 68.4089L41.5115 89.8714C41.3516 89.9571 41.1757 90 40.9998 90ZM3.3308 67.4245L40.9998 87.6849L78.6688 67.4245L60.9587 57.4662L41.529 68.3913C41.2003 68.5765 40.7992 68.5765 40.4704 68.3913L21.0407 57.4662L3.3308 67.4245ZM23.252 56.2229L40.9998 66.2025L58.7475 56.2229L40.9998 46.2433L23.252 56.2229ZM63.1698 56.2229L79.8358 65.5942V46.8516L63.1698 56.2229ZM2.16377 46.8516V65.5942L18.8297 56.2229L2.16377 46.8516ZM43.2109 45L60.9587 54.9796L78.7066 45L60.9589 35.0204L43.2109 45ZM3.29315 45L21.0409 54.9796L38.7888 45L21.0411 35.0204L3.29315 45ZM23.252 33.7771L40.9998 43.7567L58.7475 33.7771L40.9998 23.7975L23.252 33.7771ZM63.1698 33.7771L79.8358 43.1484V24.4058L63.1698 33.7771ZM2.16377 24.4058V43.1484L18.8297 33.7771L2.16377 24.4058ZM40.9998 21.4699C41.1824 21.4699 41.3648 21.5161 41.529 21.6085L60.9587 32.5338L78.6688 22.5755L40.9998 2.31484L3.3308 22.5755L21.0409 32.5338L40.4706 21.6085C40.635 21.5161 40.8174 21.4699 40.9998 21.4699Z" fill="url(#paint0_linear_841_345)"/>
<defs>
<linearGradient id="paint0_linear_841_345" x1="-10.6862" y1="21.7819" x2="101.441" y2="0.179001" gradientUnits="userSpaceOnUse">
<stop offset="0.15" stop-color="#317EBB"/>
<stop offset="0.79" stop-color="#FD5951"/>
</linearGradient>
</defs>
</svg>
